<?xml version="1.0" standalone="no"?>
<!DOCTYPE svg PUBLIC "-//W3C//DTD SVG 20010904//EN"
 "http://www.w3.org/TR/2001/REC-SVG-20010904/DTD/svg10.dtd">
<svg version="1.0" xmlns="http://www.w3.org/2000/svg"
 width="378.000000pt" height="412.000000pt" viewBox="0 0 378.000000 412.000000"
 preserveAspectRatio="xMidYMid meet">
<metadata>
Created by potrace 1.16, written by Peter Selinger 2001-2019
</metadata>
<g transform="translate(0.000000,412.000000) scale(0.100000,-0.100000)"
fill="#97857e" stroke="none">
<path d="M2522 3873 c146 -376 79 -680 -184 -827 -66 -37 -137 -104 -182 -171
-32 -49 -33 -41 -2 44 l24 67 -43 12 c-124 33 -171 143 -190 452 -11 161 -21
175 -29 39 -13 -207 -32 -324 -63 -381 -31 -58 -88 -104 -139 -114 -19 -3 -34
-7 -34 -9 0 -1 11 -33 25 -70 27 -71 27 -98 1 -47 -29 56 -117 141 -179 174
-34 18 -89 60 -123 93 -98 97 -144 214 -144 367 0 128 20 220 94 423 4 11 -9
-10 -28 -47 -44 -82 -80 -176 -108 -282 -18 -66 -22 -109 -22 -226 0 -130 3
-153 27 -226 28 -85 81 -175 142 -243 35 -38 36 -41 15 -41 -12 0 -50 7 -84
15 -228 58 -380 180 -471 379 -37 81 -75 220 -76 280 0 23 -3 59 -8 81 l-7 40
-7 -49 c-21 -144 0 -313 56 -445 65 -158 232 -358 381 -456 31 -21 56 -41 56
-46 0 -12 -103 -22 -152 -14 -108 18 -199 86 -250 190 -28 58 -29 59 -22 20 9
-57 49 -141 89 -191 32 -38 107 -93 225 -164 84 -51 160 -143 160 -197 0 -38
3 -37 -43 -18 -53 22 -54 19 -14 -20 21 -20 37 -39 37 -44 0 -12 -50 -55 -115
-99 -33 -22 -78 -57 -100 -77 -32 -30 -34 -32 -5 -10 29 23 40 26 79 21 73
-10 71 -12 -46 -97 -181 -129 -296 -252 -372 -399 -59 -114 -75 -178 -75 -305
-1 -124 14 -185 72 -302 42 -86 53 -91 17 -8 -68 153 -82 337 -36 458 29 73
108 160 192 210 35 20 121 56 192 78 83 27 155 58 207 90 l80 48 15 -29 c19
-37 19 -103 1 -138 -19 -35 -68 -81 -136 -125 -68 -44 -101 -79 -132 -137 -30
-59 -31 -154 0 -222 11 -27 23 -48 26 -48 2 0 -2 24 -10 52 -18 67 -17 83 1
145 20 69 88 143 157 173 34 15 81 24 133 28 l81 5 17 -44 c100 -270 113 -470
40 -600 -2 -3 27 -28 64 -56 71 -53 233 -215 233 -233 0 -6 38 -10 100 -10 78
0 100 3 100 14 0 20 176 194 242 239 l56 39 -21 46 c-26 60 -34 186 -17 290
11 74 70 272 89 301 7 11 27 13 91 8 132 -9 216 -61 271 -169 26 -50 28 -147
5 -202 -24 -58 -7 -41 21 21 63 138 20 260 -126 357 -150 98 -186 173 -132
275 l12 21 42 -28 c68 -47 135 -77 260 -117 65 -21 143 -53 175 -72 218 -131
276 -350 168 -637 -14 -36 -23 -66 -21 -66 10 0 54 100 76 170 27 88 32 232
10 320 -19 79 -81 205 -134 275 -60 80 -194 208 -282 270 -38 27 -83 59 -98
72 -26 21 -27 24 -10 30 10 4 39 8 64 8 l47 0 -67 47 c-93 66 -141 107 -141
120 0 6 16 26 36 44 41 39 41 39 -16 19 -24 -8 -45 -13 -48 -11 -9 10 11 67
39 110 34 51 120 119 210 168 114 60 207 176 225 279 6 33 5 33 -24 -16 -55
-92 -127 -146 -220 -166 -54 -11 -183 -5 -182 9 1 4 26 23 56 42 133 84 289
259 364 407 65 128 84 216 84 378 0 82 -5 150 -11 165 -10 21 -12 13 -12 -53
-3 -279 -146 -538 -360 -651 -90 -47 -291 -104 -291 -83 0 2 18 24 41 48 88
95 154 255 165 402 12 158 -30 348 -122 544 -24 51 -45 93 -47 93 -3 0 9 -34
25 -77z m-998 -1855 c26 -29 66 -91 90 -138 42 -80 110 -250 103 -256 -2 -2
-23 26 -46 62 -28 42 -65 82 -105 111 -33 25 -66 55 -73 66 -7 12 -12 54 -13
92 0 52 -5 78 -20 103 -20 32 -20 32 -1 23 11 -6 40 -34 65 -63z m877 46 c-17
-22 -21 -41 -21 -101 0 -89 -14 -118 -74 -155 -52 -33 -85 -68 -130 -138 -20
-30 -36 -52 -36 -49 0 22 58 170 98 249 32 64 66 114 107 157 61 64 94 85 56
37z"/>
<path d="M888 2848 l-46 -10 19 -32 c10 -18 30 -42 43 -55 22 -21 26 -21 89
-10 l65 12 -55 51 c-31 28 -58 52 -62 52 -3 1 -27 -3 -53 -8z"/>
<path d="M2857 2806 l-58 -52 66 -13 c36 -6 70 -9 76 -5 13 8 69 85 69 95 0 4
-15 10 -32 14 -18 4 -40 8 -48 10 -8 2 -41 -20 -73 -49z"/>
<path d="M595 2780 c-222 -57 -205 -47 -205 -127 0 -223 103 -639 235 -951
l47 -112 40 56 c22 32 37 64 35 73 -3 9 -26 70 -51 136 -82 212 -148 468 -176
679 -9 72 -9 91 2 97 7 5 72 22 143 39 72 17 135 33 141 35 17 5 -27 115 -46
114 -8 0 -83 -17 -165 -39z"/>
<path d="M3062 2768 c-12 -29 -19 -55 -14 -58 4 -4 68 -21 142 -39 74 -17 140
-35 147 -39 15 -10 -3 -158 -42 -342 -24 -111 -101 -359 -165 -525 l-23 -60
34 -52 c19 -28 37 -52 40 -52 18 -2 130 284 183 465 60 208 105 466 106 600 0
56 -2 62 -22 67 -13 2 -96 23 -184 46 -89 22 -166 41 -171 41 -5 0 -19 -23
-31 -52z"/>
<path d="M781 1525 c-23 -21 -41 -44 -41 -53 0 -37 170 -310 307 -491 203
-270 517 -573 803 -774 l79 -56 82 59 c253 181 568 475 743 695 96 120 245
341 321 475 44 78 47 86 34 108 -8 14 -28 36 -45 49 l-32 24 -52 -97 c-211
-396 -544 -778 -937 -1076 l-115 -88 -107 82 c-143 110 -297 246 -406 359 -86
90 -122 130 -247 279 -68 82 -192 269 -279 423 l-67 118 -41 -36z"/>
</g>
</svg>
